<svg xmlns="http://www.w3.org/2000/svg" width="1200" height="250" viewBox="0 0 1200 250" role="img" aria-labelledby="t d"><title id="t">CassielDrive storage flow</title><desc id="d">Multiple Google Drive accounts are presented through one CassielDrive interface with optional client-side vault encryption.</desc><defs><linearGradient id="bg" x1="0" x2="1"><stop stop-color="#06131d"/><stop offset="1" stop-color="#0a2130"/></linearGradient><linearGradient id="g" x1="0" x2="1"><stop stop-color="#38bdf8"/><stop offset="1" stop-color="#a78bfa"/></linearGradient></defs><rect width="1200" height="250" rx="28" fill="url(#bg)"/><g font-family="Inter,Segoe UI,Arial" text-anchor="middle"><g fill="#0d2737" stroke-width="2"><rect x="60" y="42" width="200" height="48" rx="16" stroke="#38bdf8"/><rect x="60" y="101" width="200" height="48" rx="16" stroke="#5eead4"/><rect x="60" y="160" width="200" height="48" rx="16" stroke="#a78bfa"/></g><g fill="#e8f8ff" font-size="15"><text x="160" y="72">Google Drive · Account A</text><text x="160" y="131">Google Drive · Account B</text><text x="160" y="190">Google Drive · Account C</text></g><rect x="420" y="61" width="300" height="128" rx="24" fill="#0c2637" stroke="url(#g)" stroke-width="3"/><text x="570" y="105" fill="#fff" font-size="25" font-weight="800">CassielDrive</text><text x="570" y="136" fill="#9ed6e8" font-size="14">one interface · aggregated files · account switching</text><text x="570" y="160" fill="#9ed6e8" font-size="14">uploads · search · organization · storage overview</text><rect x="875" y="48" width="245" height="70" rx="20" fill="#12243b" stroke="#a78bfa" stroke-width="2"/><text x="997" y="78" fill="#fff" font-size="17" font-weight="700">Normal Drive files</text><text x="997" y="100" fill="#c3b7ed" font-size="13">managed through Google Drive</text><rect x="875" y="137" width="245" height="70" rx="20" fill="#102c2a" stroke="#5eead4" stroke-width="2"/><text x="997" y="167" fill="#fff" font-size="17" font-weight="700">Cassiel Vault</text><text x="997" y="189" fill="#a7e4df" font-size="13">client-side encrypted file flow</text></g><g stroke="url(#g)" stroke-width="5" stroke-linecap="round" fill="none"><path d="M260 66 C330 66 340 100 420 100"/><path d="M260 125 H420"/><path d="M260 184 C330 184 340 150 420 150"/><path d="M720 105 C795 105 805 83 875 83"/><path d="M720 150 C795 150 805 172 875 172"/></g></svg>